# xmcd
#
# Track frame offsets:
#	150
#	12684
#	26453
#	42587
#	58580
#	75355
#	89579
#	108944
#	121702
#	139352
#	152186
#	177086
#
# Disc length: 3524 seconds
#
# Revision: 3
# Processed by: cddbd v1.5.2PL0 Copyright (c) Steve Scherf et al.
# Submitted via: SynApp - FreeCDDB Version: 2.5
#
DISCID=980dc20c
DTITLE=Booker T. and The M.G.'s - The Booker T.Set
DYEAR=1969
DGENRE=Instrumental Soul
TTITLE0=The Horse
TTITLE1=Love Child
TTITLE2=Sing A Simple Song
TTITLE3=Lady Madonna
TTITLE4=Mrs. Robinson
TTITLE5=The Guy's In Love With You
TTITLE6=Light My Fire
TTITLE7=Michelle
TTITLE8=You're All I Need To Get By
TTITLE9=I've Never Found A Girl (To Love Me Like You Do)
TTITLE10=It's Your Thing
TTITLE11=Multimedia-Track
EXTD=Remastered
EXTT0=
EXTT1=
EXTT2=
EXTT3=
EXTT4=
EXTT5=
EXTT6=
EXTT7=
EXTT8=
EXTT9=
EXTT10=
EXTT11=
PLAYORDER=
